<svg version="1.1" id="Layer_1" xmlns="http://www.w3.org/2000/svg" xmlns:xlink="http://www.w3.org/1999/xlink" x="0px" y="0px" width="100%" viewBox="0 0 1060 1062" enable-background="new 0 0 1060 1062" xml:space="preserve">
	<path fill="#000000" opacity="1.000000" stroke="none" d="
	M619.000000,1063.000000 
		C412.690857,1063.000000 206.881699,1063.000000 1.036272,1063.000000 
		C1.036272,709.065796 1.036272,355.131531 1.036272,1.098655 
		C354.226013,1.098655 707.452026,1.098655 1060.839111,1.098655 
		C1060.839111,354.999939 1060.839111,708.999939 1060.839111,1063.000000 
		C913.797791,1063.000000 766.648865,1063.000000 619.000000,1063.000000 
	M602.598083,13.934199 
		C569.159119,9.467055 535.632507,8.005630 501.903564,9.857473 
		C454.587006,12.455327 408.365845,20.873196 363.648529,36.358459 
		C248.098480,76.372559 157.012436,147.936157 90.208481,250.365585 
		C86.551857,255.972229 83.207970,261.782837 79.399979,268.020203 
		C107.081123,268.020203 133.744614,268.097473 160.406540,267.929108 
		C164.019623,267.906311 165.954819,268.934937 167.792435,272.122681 
		C287.764099,480.240448 407.831635,688.302917 527.899536,896.365234 
		C528.838440,897.992249 529.897522,899.549866 531.152283,901.539062 
		C637.378723,717.406738 743.240784,533.906006 849.364136,349.952362 
		C828.822876,349.952362 809.158508,349.952393 789.494141,349.952362 
		C716.663147,349.952240 643.832153,349.976257 571.001343,349.875092 
		C567.620483,349.870392 565.635742,350.757416 564.024170,353.820801 
		C560.631104,360.270569 556.817444,366.499054 553.176453,372.818390 
		C545.930359,385.394714 538.684387,397.971069 531.019653,411.274170 
		C503.316925,363.236664 476.021149,315.904785 448.316071,267.863159 
		C626.900513,267.863159 804.319031,267.863159 982.385864,267.863159 
		C981.316223,265.992584 980.552979,264.581848 979.720459,263.213257 
		C964.902588,238.854370 948.447449,215.682083 929.989502,193.923065 
		C886.825806,143.039932 835.807678,101.860466 777.009766,70.419632 
		C722.558472,41.303097 664.689819,22.453178 602.598083,13.934199 
	M94.601357,308.899811 
		C88.252319,297.935181 81.903290,286.970551 75.417595,275.769928 
		C-8.867574,420.875092 -23.593325,629.749634 85.639999,806.226379 
		C199.502121,990.181519 388.057678,1055.703003 524.600098,1054.360718 
		C523.753113,1052.816040 522.997375,1051.373657 522.184387,1049.964233 
		C451.378265,927.211609 380.581696,804.453491 309.753723,681.713440 
		C238.162598,557.650818 166.540054,433.606262 94.601357,308.899811 
	M1052.692383,494.889008 
		C1051.854126,486.438721 1051.130859,477.975220 1050.159302,469.540314 
		C1043.595581,412.556702 1027.650513,358.267090 1002.980835,306.532715 
		C998.006714,296.101501 992.447693,285.949158 986.870972,275.109619 
		C836.683594,535.439758 686.991577,794.911194 536.940002,1055.005981 
		C581.378235,1054.352051 624.000305,1048.645386 665.828857,1037.415771 
		C747.773132,1015.416260 820.205200,975.878601 882.954041,918.758057 
		C944.190002,863.014709 989.741943,796.432434 1019.454529,719.162659 
		C1047.112671,647.235474 1057.821167,572.681580 1052.692383,494.889008 
	z"/>
	<path fill="#FFFFFF" opacity="1.000000" stroke="none" 
		d="
	M603.039429,13.966597 
		C664.689819,22.453178 722.558472,41.303097 777.009766,70.419632 
		C835.807678,101.860466 886.825806,143.039932 929.989502,193.923065 
		C948.447449,215.682083 964.902588,238.854370 979.720459,263.213257 
		C980.552979,264.581848 981.316223,265.992584 982.385864,267.863159 
		C804.319031,267.863159 626.900513,267.863159 448.316071,267.863159 
		C476.021149,315.904785 503.316925,363.236664 531.019653,411.274170 
		C538.684387,397.971069 545.930359,385.394714 553.176453,372.818390 
		C556.817444,366.499054 560.631104,360.270569 564.024170,353.820801 
		C565.635742,350.757416 567.620483,349.870392 571.001343,349.875092 
		C643.832153,349.976257 716.663147,349.952240 789.494141,349.952362 
		C809.158508,349.952393 828.822876,349.952362 849.364136,349.952362 
		C743.240784,533.906006 637.378723,717.406738 531.152283,901.539062 
		C529.897522,899.549866 528.838440,897.992249 527.899536,896.365234 
		C407.831635,688.302917 287.764099,480.240448 167.792435,272.122681 
		C165.954819,268.934937 164.019623,267.906311 160.406540,267.929108 
		C133.744614,268.097473 107.081123,268.020203 79.399979,268.020203 
		C83.207970,261.782837 86.551857,255.972229 90.208481,250.365585 
		C157.012436,147.936157 248.098480,76.372559 363.648529,36.358459 
		C408.365845,20.873196 454.587006,12.455327 501.903564,9.857473 
		C535.632507,8.005630 569.159119,9.467055 603.039429,13.966597 
	M626.396057,572.919006 
		C653.432434,526.068481 680.468872,479.217987 707.776367,431.897736 
		C706.359009,431.703766 705.588257,431.506531 704.817444,431.506134 
		C675.489807,431.490051 646.161682,431.566559 616.835083,431.388977 
		C613.501770,431.368774 612.620361,433.295044 611.389343,435.430603 
		C585.581299,480.199921 559.770996,524.967896 533.948486,569.728943 
		C533.087341,571.221558 532.093994,572.637878 530.933960,574.445618 
		C529.763550,572.498108 528.899902,571.109802 528.082825,569.694641 
		C470.810791,470.497345 413.527069,371.306763 356.348663,272.055542 
		C354.643829,269.096283 352.947327,267.910004 349.452087,267.929688 
		C321.125153,268.089294 292.796906,268.019318 264.469055,268.019348 
		C263.070831,268.019348 261.672577,268.019348 259.619598,268.019348 
		C350.226990,425.006165 440.417053,581.269897 531.019653,738.248474 
		C562.971130,682.887817 594.516663,628.230408 626.396057,572.919006 
	z"/>
	<path fill="#FFFFFF" opacity="1.000000" stroke="none" 
		d="
	M94.766319,309.226807 
		C166.540054,433.606262 238.162598,557.650818 309.753723,681.713440 
		C380.581696,804.453491 451.378265,927.211609 522.184387,1049.964233 
		C522.997375,1051.373657 523.753113,1052.816040 524.600098,1054.360718 
		C388.057678,1055.703003 199.502121,990.181519 85.639999,806.226379 
		C-23.593325,629.749634 -8.867574,420.875092 75.417595,275.769928 
		C81.903290,286.970551 88.252319,297.935181 94.766319,309.226807 
	z"/>
	<path fill="#FFFFFF" opacity="1.000000" stroke="none" 
		d="
	M1052.727539,495.357269 
		C1057.821167,572.681580 1047.112671,647.235474 1019.454529,719.162659 
		C989.741943,796.432434 944.190002,863.014709 882.954041,918.758057 
		C820.205200,975.878601 747.773132,1015.416260 665.828857,1037.415771 
		C624.000305,1048.645386 581.378235,1054.352051 536.940002,1055.005981 
		C686.991577,794.911194 836.683594,535.439758 986.870972,275.109619 
		C992.447693,285.949158 998.006714,296.101501 1002.980835,306.532715 
		C1027.650513,358.267090 1043.595581,412.556702 1050.159302,469.540314 
		C1051.130859,477.975220 1051.854126,486.438721 1052.727539,495.357269 
	z"/>
	<path fill="#010101" opacity="1.000000" stroke="none" 
		d="
	M626.229126,573.245972 
		C594.516663,628.230408 562.971130,682.887817 531.019653,738.248474 
		C440.417053,581.269897 350.226990,425.006165 259.619598,268.019348 
		C261.672577,268.019348 263.070831,268.019348 264.469055,268.019348 
		C292.796906,268.019318 321.125153,268.089294 349.452087,267.929688 
		C352.947327,267.910004 354.643829,269.096283 356.348663,272.055542 
		C413.527069,371.306763 470.810791,470.497345 528.082825,569.694641 
		C528.899902,571.109802 529.763550,572.498108 530.933960,574.445618 
		C532.093994,572.637878 533.087341,571.221558 533.948486,569.728943 
		C559.770996,524.967896 585.581299,480.199921 611.389343,435.430603 
		C612.620361,433.295044 613.501770,431.368774 616.835083,431.388977 
		C646.161682,431.566559 675.489807,431.490051 704.817444,431.506134 
		C705.588257,431.506531 706.359009,431.703766 707.776367,431.897736 
		C680.468872,479.217987 653.432434,526.068481 626.229126,573.245972 
	z"/>
</svg>